# Exported from Wings 3D 1.4.1
mtllib obj_card.mtl
o cube2
#44 vertices, 84 faces
v -9.1003389e-2 -0.14571913 -1.3891954e-3
v -9.1444487e-2 0.14502445 -1.3891954e-3
v 9.3704080e-2 0.14518567 -1.3891954e-3
v 0.10234399 -0.13735184 -1.3891954e-3
v -8.3779977e-2 -0.13203467 -1.3891954e-3
v -8.3779977e-2 0.13125232 -1.3891954e-3
v 8.8117928e-2 0.13125232 -1.3891954e-3
v 8.8117928e-2 -0.13203467 -1.3891954e-3
v -0.10004063 -0.13504813 -1.3891954e-3
v -9.7084929e-2 -0.14158308 -1.3891954e-3
v -9.9887856e-2 0.13368080 -1.3891954e-3
v -9.7659934e-2 0.14022088 -1.2927230e-3
v 0.10247332 0.13492812 -1.3891954e-3
v 9.9734752e-2 0.14066870 -1.3891954e-3
v 9.3782959e-2 -0.14568629 -1.3891954e-3
v 9.9035497e-2 -0.14270126 -1.3891954e-3
v -9.1003389e-2 -0.14571913 -3.1161569e-3
v -9.1444487e-2 0.14502445 -3.1161569e-3
v 9.3704080e-2 0.14518567 -3.1161569e-3
v 0.10234399 -0.13735184 -3.1161569e-3
v -8.3779977e-2 -0.13203467 -3.1161569e-3
v -8.3779977e-2 0.13125232 -3.1161569e-3
v 8.8117928e-2 0.13125232 -3.1161569e-3
v 8.8117928e-2 -0.13203467 -3.1161569e-3
v -0.10004063 -0.13504813 -3.1161569e-3
v 9.9035497e-2 -0.14270126 -3.1161569e-3
v 9.3782959e-2 -0.14568629 -3.1161569e-3
v -9.9887856e-2 0.13368080 -3.1161569e-3
v -9.7659934e-2 0.14022088 -3.0196846e-3
v -9.7084929e-2 -0.14158308 -3.1161569e-3
v 9.9734752e-2 0.14066870 -3.1161569e-3
v 0.10247332 0.13492812 -3.1161569e-3
v -9.1003356e-2 -0.14571915 2.1726627e-3
v 9.3782992e-2 -0.14568631 2.1726627e-3
v 9.9035530e-2 -0.14270128 2.1726627e-3
v 0.10234402 -0.13735186 2.1726627e-3
v 0.10247335 0.13492810 2.1726627e-3
v 9.9734785e-2 0.14066868 2.1726627e-3
v 9.3704113e-2 0.14518564 2.1726627e-3
v -9.1444454e-2 0.14502443 2.1726627e-3
v -9.7659901e-2 0.14022085 2.2691351e-3
v -9.9887823e-2 0.13368078 2.1726627e-3
v -0.10004060 -0.13504816 2.1726627e-3
v -9.7084895e-2 -0.14158310 2.1726627e-3
vt 4.1541534e-2 0.92969545
vt 4.1644659e-2 0.93092189
vt 4.1694950e-2 0.93152036
vt 4.1810504e-2 0.36339009
vt 4.1914805e-2 0.36214103
vt 4.1965670e-2 0.36153147
vt 4.7237381e-2 0.94163508
vt 4.7365403e-2 0.94291371
vt 4.7427845e-2 0.94353765
vt 4.8691715e-2 0.35226403
vt 4.8826094e-2 0.35096634
vt 4.8891638e-2 0.35033304
vt 5.9616281e-2 0.34605557
vt 5.9780360e-2 0.95102976
vt 5.9798415e-2 0.34473074
vt 5.9887263e-2 0.34408419
vt 5.9963212e-2 0.95234945
vt 6.0052410e-2 0.95299344
vt 7.1632415e-2 0.37324838
vt 7.1632434e-2 0.92324329
vt 7.1746398e-2 0.37266240
vt 7.1746417e-2 0.92382546
vt 0.43071955 0.37324837
vt 0.43071957 0.92324327
vt 0.43159621 0.37266239
vt 0.43159623 0.92382544
vt 0.44394678 0.34598726
vt 0.44486423 0.95069443
vt 0.44580894 0.34466213
vt 0.44671764 0.34401544
vt 0.44673040 0.95201265
vt 0.44764106 0.95265593
vt 0.45659556 0.35458968
vt 0.45773967 0.94066928
vt 0.45851301 0.35330215
vt 0.45944869 0.35267381
vt 0.45966190 0.94194353
vt 0.46059991 0.94256535
vt 0.46242529 0.92710118
vt 0.46274302 0.36818148
vt 0.46436822 0.92831627
vt 0.46468734 0.36695337
vt 0.46531634 0.92890921
vt 0.46563614 0.36635402
vt 0.50240354 0.37153957
vt 0.50364284 0.93250023
vt 0.50706844 0.35790888
vt 0.50985063 0.94612450
vt 0.51996293 0.34781124
vt 0.52256956 0.95472305
vt 0.90645143 0.34640113
vt 0.90830269 0.95358304
vt 0.91906638 0.35579513
vt 0.91924982 0.94732146
vt 0.92481630 0.36776246
vt 0.92612513 0.93613561
vn -0.29411867 -0.95576891 -1.9440756e-6
vn -0.32349078 0.94623132 4.7883653e-6
vn 0.31551054 0.94892207 1.8206707e-6
vn 0.96182960 -0.27364909 -5.4299789e-6
vn 0.57735027 0.57735027 -0.57735027
vn 0.57735027 -0.57735027 -0.57735027
vn -0.57735027 -0.57735027 -0.57735027
vn -0.57735027 0.57735027 -0.57735027
vn -0.97759210 -0.21050815 3.8244937e-6
vn -0.76538627 -0.64357118 1.3341135e-6
vn -0.98650890 0.16370762 5.1637106e-6
vn -0.81354086 0.58150776 5.8066875e-6
vn 0.97538767 0.22049691 -3.7795854e-6
vn 0.77345044 0.63385678 -1.4053702e-6
vn 0.25561349 -0.96677906 -4.5433875e-6
vn 0.69386613 -0.72010401 -5.7297511e-6
vn -0.23137909 -0.75189019 -0.61735311
vn -0.22644090 0.64862592 -0.72664223
vn 0.24750319 0.74438476 -0.62018828
vn 0.66680410 -0.18971171 -0.72068146
vn 0.19245009 0.19245009 -0.96225045
vn 0.34699488 -0.34712525 -0.87126266
vn -0.23570226 -0.23570226 -0.94280904
vn -0.34815531 0.34815531 -0.87038828
vn -0.77559161 -0.16701072 -0.60874056
vn 0.61660362 -0.63991989 -0.45858751
vn 0.13848214 -0.52376590 -0.84053077
vn -0.54151142 9.3866552e-2 -0.83543668
vn -0.72144984 0.51608500 -0.46169947
vn -0.67922123 -0.57111974 -0.46095636
vn 0.53880758 0.44156266 -0.71743210
vn 0.77319902 0.17478998 -0.60959966
vn -0.26060874 -0.84687492 0.46355793
vn 0.13848271 -0.52376807 0.84052932
vn 0.67186312 -0.69726898 0.24983178
vn 0.51923046 -0.14772569 0.84177007
vn 0.68102208 0.15395239 0.71589635
vn 0.68764008 0.56353362 0.45780014
vn 0.24750275 0.74438344 0.62019004
vn -0.21113199 0.64676086 0.73288722
vn -0.78673206 0.56206973 0.25520635
vn -0.43004294 6.6610519e-2 0.90034777
vn -0.60219451 -0.12967254 0.78774793
vn -0.67922049 -0.57111912 0.46095822
g cube2_cube2_auv
usemtl cube2_auv
s 1
f 1/29/1 17/30/17 15/15/15
f 1/29/1 33/27/33 10/35/10
f 2/31/2 19/18/19 18/32/18
f 2/31/2 29/38/29 12/37/12
f 2/31/2 39/14/39 3/17/3
f 3/17/3 19/18/19 2/31/2
f 3/17/3 39/14/39 14/8/14
f 4/5/4 26/12/26 20/6/20
f 4/5/4 32/3/32 13/2/13
f 4/5/4 35/10/35 16/11/16
f 5/23/5 22/26/22 6/24/6
f 5/23/5 24/21/24 21/25/21
f 6/24/6 7/20/7 5/23/5
f 6/24/6 22/26/22 7/20/7
f 7/20/7 22/26/22 23/22/23
f 7/20/7 24/21/24 8/19/8
f 8/19/8 5/23/5 7/20/7
f 8/19/8 24/21/24 5/23/5
f 9/42/9 25/44/25 10/35/10
f 9/42/9 43/40/43 11/41/11
f 10/35/10 17/30/17 1/29/1
f 10/35/10 25/44/25 30/36/30
f 10/35/10 43/40/43 9/42/9
f 11/41/11 25/44/25 9/42/9
f 11/41/11 29/38/29 28/43/28
f 11/41/11 41/34/41 12/37/12
f 12/37/12 29/38/29 11/41/11
f 12/37/12 41/34/41 2/31/2
f 13/2/13 32/3/32 14/8/14
f 13/2/13 37/1/37 4/5/4
f 14/8/14 19/18/19 3/17/3
f 14/8/14 32/3/32 31/9/31
f 14/8/14 37/1/37 13/2/13
f 15/15/15 17/30/17 27/16/27
f 15/15/15 26/12/26 16/11/16
f 15/15/15 33/27/33 1/29/1
f 16/11/16 26/12/26 4/5/4
f 16/11/16 35/10/35 15/15/15
f 17/30/17 25/44/25 21/25/21
f 18/32/18 19/18/19 22/26/22
f 18/32/18 29/38/29 2/31/2
f 19/18/19 31/9/31 23/22/23
f 20/6/20 26/12/26 24/21/24
f 20/6/20 32/3/32 4/5/4
f 21/25/21 22/26/22 5/23/5
f 21/25/21 27/16/27 17/30/17
f 21/25/21 28/43/28 22/26/22
f 22/26/22 29/38/29 18/32/18
f 23/22/23 22/26/22 19/18/19
f 23/22/23 24/21/24 7/20/7
f 23/22/23 32/3/32 24/21/24
f 24/21/24 27/16/27 21/25/21
f 24/21/24 32/3/32 20/6/20
f 25/44/25 28/43/28 21/25/21
f 27/16/27 24/21/24 26/12/26
f 27/16/27 26/12/26 15/15/15
f 28/43/28 25/44/25 11/41/11
f 29/38/29 22/26/22 28/43/28
f 30/36/30 17/30/17 10/35/10
f 30/36/30 25/44/25 17/30/17
f 31/9/31 19/18/19 14/8/14
f 32/3/32 23/22/23 31/9/31
f 33/27/33 15/15/15 34/13/34
f 34/13/34 15/15/15 35/10/35
f 34/52/34 43/46/43 33/50/33
f 35/10/35 4/5/4 36/4/36
f 35/54/35 36/56/36 34/52/34
f 36/4/36 4/5/4 37/1/37
f 37/1/37 14/8/14 38/7/38
f 37/55/37 43/46/43 36/56/36
f 38/7/38 14/8/14 39/14/39
f 38/53/38 39/51/39 37/55/37
f 39/14/39 2/31/2 40/28/40
f 39/51/39 42/45/42 37/55/37
f 40/28/40 2/31/2 41/34/41
f 40/49/40 42/45/42 39/51/39
f 41/34/41 11/41/11 42/39/42
f 41/47/41 42/45/42 40/49/40
f 42/39/42 11/41/11 43/40/43
f 43/40/43 10/35/10 44/33/44
f 43/46/43 34/52/34 36/56/36
f 43/46/43 37/55/37 42/45/42
f 44/33/44 10/35/10 33/27/33
f 44/48/44 33/50/33 43/46/43
